<?xml version="1.0" encoding="UTF-8"?>
<svg xmlns="http://www.w3.org/2000/svg" width="328" height="160" viewBox="0 0 328 160" font-family="-apple-system,Segoe UI,Helvetica,sans-serif" font-size="11">
  <title>burn flow — session 11111111-1111-1111-1111-111111111111 (3 of 3 turns)</title>
  <g id="legend">
    <rect x="24" y="24" width="14" height="14" fill="#e3f2fd" stroke="#1565c0"/>
    <text x="42" y="35" fill="#212121">inference</text>
    <rect x="120" y="24" width="14" height="14" fill="#fff3e0" stroke="#ef6c00"/>
    <text x="138" y="35" fill="#212121">tool-use</text>
    <rect x="216" y="24" width="14" height="14" fill="#f3e5f5" stroke="#6a1b9a"/>
    <text x="234" y="35" fill="#212121">subagent</text>
    <rect x="312" y="24" width="14" height="14" fill="#e8f5e9" stroke="#2e7d32"/>
    <text x="330" y="35" fill="#212121">skill</text>
    <line x1="24" y1="53" x2="38" y2="53" stroke="#9e9e9e" stroke-width="2"/>
    <text x="42" y="57" fill="#212121">default</text>
    <line x1="120" y1="53" x2="134" y2="53" stroke="#ef6c00" stroke-width="2" stroke-dasharray="4 3"/>
    <text x="138" y="57" fill="#212121">dispatch</text>
    <line x1="216" y1="53" x2="230" y2="53" stroke="#ef6c00" stroke-width="2" stroke-dasharray="4 3"/>
    <text x="234" y="57" fill="#212121">return</text>
    <line x1="312" y1="53" x2="326" y2="53" stroke="#1565c0" stroke-width="2"/>
    <text x="330" y="57" fill="#212121">subagent</text>
    <line x1="408" y1="53" x2="422" y2="53" stroke="#b71c1c" stroke-width="2" stroke-dasharray="2 2"/>
    <text x="426" y="57" fill="#212121">unattached</text>
  </g>
  <g id="edges">
    <line x1="68" y1="104" x2="68" y2="112" stroke="#9e9e9e" stroke-width="1.5"/>
    <line x1="164" y1="104" x2="164" y2="112" stroke="#9e9e9e" stroke-width="1.5"/>
    <line x1="260" y1="104" x2="260" y2="112" stroke="#9e9e9e" stroke-width="1.5"/>
  </g>
  <g id="nodes">
    <g><rect x="24" y="80" width="88" height="24" fill="#e3f2fd" stroke="#1565c0" rx="3"/><text x="28" y="94" fill="#212121">T0 inf #1</text></g>
    <g><rect x="24" y="112" width="88" height="24" fill="#fff3e0" stroke="#ef6c00" rx="3"/><text x="28" y="126" fill="#212121">T0 Read</text></g>
    <g><rect x="120" y="80" width="88" height="24" fill="#e3f2fd" stroke="#1565c0" rx="3"/><text x="124" y="94" fill="#212121">T1 inf #1</text></g>
    <g><rect x="120" y="112" width="88" height="24" fill="#fff3e0" stroke="#ef6c00" rx="3"/><text x="124" y="126" fill="#212121">T1 Edit</text></g>
    <g><rect x="216" y="80" width="88" height="24" fill="#e3f2fd" stroke="#1565c0" rx="3"/><text x="220" y="94" fill="#212121">T2 inf #1</text></g>
    <g><rect x="216" y="112" width="88" height="24" fill="#fff3e0" stroke="#ef6c00" rx="3"/><text x="220" y="126" fill="#212121">T2 Bash</text></g>
  </g>
</svg>
